<svg id="Layer_1" data-name="Layer 1" xmlns="http://www.w3.org/2000/svg" viewBox="0 0 512 512"><defs><style>.cls-1{fill:#707070;}</style></defs><title>closed-handdrawn</title><path class="cls-1" d="M185.55,117.77c-.56-.49-1-1.38.13-2.83.2-.25.78-.9,1.31-1.46l10.44-10.8c.72-.61,1.53-1.29,2.55-2.22.32-.29.83-.79,1.39-1.37,0-.81,1-1.83,3.5-4.31l3.54-3.58c3.08-3.14,6.28-6.38,9.27-9.11,1.76-1.6,2.64-2.4,3.8-1.48l1.08.86-.69,1.24c-.66,1.21-1.56,2.66-2.56,4.22a36.68,36.68,0,0,1-4.41,4.72C209,97.47,203,103.39,197.14,109.3c-7.26,7.26-9.51,8.95-10.63,8.95A1.42,1.42,0,0,1,185.55,117.77ZM3.12,438.1a47.54,47.54,0,0,1-.52-5.73c-.06-2-.17-4.64-.09-6.43.34-15.94.58-40.68.58-65.94,0-27.84,0-55.79.05-83.69l0-20.91,0-10.55a70.28,70.28,0,0,1,1.4-12.69,64.09,64.09,0,0,1,59.89-50.44c2.16-.14,3.72-.16,5-.17l3.75-.07,5.22-.2c11.71-.77,22.53-1.54,31.33-2.31,1.46-.13-7.07-.33-14.45-.44l-28.69-.23a67.28,67.28,0,0,0-36.57,11.06,70.93,70.93,0,0,0-14.63,13.1A72.4,72.4,0,0,0,5.25,219.28,72.57,72.57,0,0,0,.38,238.34l-.28,4.88L0,245.61v9.45c0,30.85.21,34.86.64,20.07.13-4.43.33-.8.49-.85,0,10.62,0,25,0,31.06l-.65,30.2c.24,31.61.47,61.78.7,91.65A69.25,69.25,0,0,0,2.92,442c1.73,6,2.18,6.76,1.54,3.63A75.45,75.45,0,0,1,3.12,438.1ZM303.46,104c1.25,1.23,2.49,2.45,3.7,3.66,2.49,2.48,3.5,3.5,4.31,3.5.57.57,1.08,1.07,1.37,1.39.93,1,1.61,1.83,2.22,2.55l10.8,10.44c.56.53,1.2,1.11,1.46,1.31a2.8,2.8,0,0,0,1.65.7,1.55,1.55,0,0,0,1.18-.57c1-1.11,1.46-1.66-8.46-11.59-5.91-5.9-11.82-11.88-17.64-17.79a36.62,36.62,0,0,0-4.72-4.41c-1.55-1-3-1.9-4.22-2.56L293.86,90,293,91.08c-.92,1.16-.12,2,1.48,3.8C297.16,97.84,300.37,101,303.46,104ZM37.58,199.11c1.31-.83,2.53-1.72,4-2.46A44.6,44.6,0,0,0,37.58,199.11ZM342.86,485.94,272,486c-32.87-.16-54.69.13-81.38.27l-61.37.28-32,.13-16.43.07-8.33,0c-2.8,0-5.47.08-8.81-.13a63,63,0,0,1-8.35-.73,73.62,73.62,0,0,1-8.78-2.16c-2.13-.74.19.61,4.85,2A54.65,54.65,0,0,0,64.25,488c2.52.21,4.6.22,6.68.26l6.2.13c8,.17,14.81.34,16.32.52,6.21.75,41.52.52,65.6.65,20.44.11,32.13-.06,40.18-.4,8.42-.36,21.53-.7,36.71-1,6.2-.12,28.53-.2,34.44-.12,39.35.54,78.91.12,110.94.14l-20.48-1.1ZM246.22,357.11c-.24.44-.49.88-.76,1.3a2.46,2.46,0,0,1,.31.23c.73.6,1.34,1.7.15,3.52a13,13,0,0,1-1.41,1.61,20.94,20.94,0,0,1-12,5.51,38.75,38.75,0,0,1-4,.05c-.34,0-.92,0-1.57-.06a2.93,2.93,0,0,1-1.18.2,25.06,25.06,0,0,1-3.48-.43c-6.17-1.06-11.61-4.15-14.58-8.26-.9-1.2-2.46-3.26-.66-4.77a2.22,2.22,0,0,1,1.2-.5,19.43,19.43,0,0,1-.71-1.83,2.31,2.31,0,0,1-1,.53,2.29,2.29,0,0,1-2.74-1.49l-.18-.55a36,36,0,0,1-.81-5.49,90.16,90.16,0,0,1,.43-17.71.32.32,0,0,0,0-.08c1.16-6.4,1.88-6.65,2.87-7a2.25,2.25,0,0,1,2.28.45c1.16,1,.86,2.43.41,4.57l-.41,2.7a66.64,66.64,0,0,0-.57,7.64,2.15,2.15,0,0,1-.12.68l-.05,1.71c0,.94-.07,1.87-.1,2.8a2.37,2.37,0,0,1,.37-.08v-.18a2.22,2.22,0,0,1,.25-1.06v-3.05a44.16,44.16,0,0,1,.8-9.74,2.73,2.73,0,0,1,.37-.81,32,32,0,0,1,1.46-5.39,2.8,2.8,0,0,1-.74-2.11c.16-.71.2-1,.25-1.23l.12-.64a2.18,2.18,0,0,1,.24-.66c.5-.9,1-1.64,1.29-2.18l.08-.13a2.25,2.25,0,0,1,.39-.87,19.89,19.89,0,0,1,16.56-8l.25,0v0a8.73,8.73,0,0,1,1.75.2c.27,0,.53.09.81.11A26.93,26.93,0,0,1,248,316.42l.52.71a2.28,2.28,0,0,1,2.7,1c2,3.49,3,8.62,2.51,13.71l-.45,7.62a26,26,0,0,1-.81,4.71s-1.5,6.21-2.62,7.64l-1.62,3.5A3,3,0,0,1,246.22,357.11Zm-3.08-27.75,0-.1-.36-2.13a11.8,11.8,0,0,0-1.65-4.75,14.2,14.2,0,0,0-3.77-3.86,2.28,2.28,0,0,1-.7-.78c-.92-.63-1.51-1-1.85-1.16a4.38,4.38,0,0,1-1-.87,15.71,15.71,0,0,0-4.62-1,12.56,12.56,0,0,0-8.1,2.46,16.91,16.91,0,0,0-2.1,2.18l-.56.78a10,10,0,0,0-1,1.48,2.27,2.27,0,0,1-1.28,1.12,2.67,2.67,0,0,1-.44.27,2.4,2.4,0,0,1,0,1.1c-.12.41-.22.76-.3,1.06a2.3,2.3,0,0,1,.11,1.25c-.06.29-.12.6-.17.88a6.28,6.28,0,0,1,.05,1.78c0,.15,0,.3,0,.45a2.64,2.64,0,0,1,.11.4,6,6,0,0,1,.06,2l-.22,7.5,0,.8c.1,4.78.2,9.29,1.74,12.11a8.64,8.64,0,0,0,5.16,3.85,20.86,20.86,0,0,0,9.89.6c3.36-.69,4.81-2,6.46-6,.36-.82.74-1.76,1-2.42a71.45,71.45,0,0,0,3.26-13.39A41.65,41.65,0,0,0,243.14,329.37Zm-86.57,35.29a2.87,2.87,0,0,0,1.36,2.57,2.3,2.3,0,0,0,1,.22l4.18,0h0a2.28,2.28,0,0,0,2.21-1.74l9.77.12.85,0a2.21,2.21,0,0,0,.5.06l9.68.06a1.43,1.43,0,0,0,1-.2,4.6,4.6,0,0,0,2-.26l.68-.35a2.47,2.47,0,0,0,1.56-2.63,2.21,2.21,0,0,0-.62-1.28,2.49,2.49,0,0,0,.1-.71,2,2,0,0,0-.9-1.79,2.29,2.29,0,0,0-1.58-.79l-4.5-.17c-1.83-.15-4-.18-6.1-.21h-4.43a6.58,6.58,0,0,0-2.72-.49,2.28,2.28,0,0,0-1-.26l-1.59-.05h-.46a81.55,81.55,0,0,0,.11-8.78l-.6-24.61c-.06-3.22-.19-6.3-.45-9.44l-.05-.79a17,17,0,0,0-.21-3.08l-.12-.92a3.86,3.86,0,0,0-.52-1.71,1.81,1.81,0,0,0-.15-.24,4.44,4.44,0,0,0-.51-1.35c0-.19-.06-.35-.06-.35a2.21,2.21,0,0,0-.57-1.14c0-.05,0-.1,0-.16a2.29,2.29,0,0,0-.73-1.47l-.13-.37a2.28,2.28,0,0,0-4.43.88l.28,3.93a2.56,2.56,0,0,0-.17.73,38.53,38.53,0,0,0,.18,4.49l.09,1.21c0,.44.06.84.08,1.2a1.35,1.35,0,0,0-.09.22,2.19,2.19,0,0,0-.5.1l0-1.13a2.29,2.29,0,0,0,.11-.81l-.2-4.3s0-.21,0-.25l-.15-1.47c-.13-.92-.4-3.44-2.77-3.15s-2.3,2.59-2.25,5.2l.57,11.8a5.72,5.72,0,0,0,.12.67,2.26,2.26,0,0,0,.62,1.12,4.14,4.14,0,0,0-.44,2.07c0,1.53,0,3.21.11,4.9l.09,2.3a7.66,7.66,0,0,0,.38,2.62v.07l-.1,1.33c0,.09,0,.67,0,.76l.37,6.42a2.76,2.76,0,0,0,1.7,2,2.52,2.52,0,0,0-.17.66l-.09,1c0,.38-.11.9.08.55-.39.73-.42,1.59-.43,3.61l0,1.28a13.53,13.53,0,0,0,.13,2.89,17.53,17.53,0,0,1,.2,1.88c0,.39,0,1.36,0,2Zm134-3.73c-.54,0-1.07-.11-1.6-.2a2.06,2.06,0,0,0-.44-.1A22.31,22.31,0,0,1,274.84,354a2.33,2.33,0,0,0-.71-.52,13.35,13.35,0,0,1-1.27-1.68,6.65,6.65,0,0,0-.69-.72c-.22-.2-.43-.37-.48-.4a2.81,2.81,0,0,0-2.32-1.33,2.33,2.33,0,0,0-2,1.48,1.74,1.74,0,0,0-.11.52,2.32,2.32,0,0,0-1.49,1.21,2.11,2.11,0,0,0-.16,1.64,2.28,2.28,0,0,0,.29,1.26,22.59,22.59,0,0,0,2.8,4,29,29,0,0,0,4.12,3.73,30.52,30.52,0,0,0,14.64,5.8,40.31,40.31,0,0,0,8,.29l.11.05a2.42,2.42,0,0,0,.73.18,7,7,0,0,0,.84,0,20.92,20.92,0,0,0,4.12-.52,2.38,2.38,0,0,0,1.06,0,22.47,22.47,0,0,0,9.9-4.83A16.71,16.71,0,0,0,318,353a12.56,12.56,0,0,0-.1-3.35h-.09c0-.16,0-.32,0-.48h.05a2.23,2.23,0,0,0-.08-.36,23.08,23.08,0,0,0-2.8-8.69c-2.73-5.84-10.76-10.73-16.49-11.89-.95-.25-2.3-.57-3.43-.78a61.5,61.5,0,0,0-7.55-.91c-2.71-.21-5.27-.4-6.86-1.13-1.41-.58-2.24-1.48-1.69-4a6.34,6.34,0,0,1,3.87-4.27c3.38-1.47,8-1.77,12.65-.81a9.49,9.49,0,0,1,1.39.39,27.42,27.42,0,0,1,4.59,1.89,6.3,6.3,0,0,0,1.6.7,1.68,1.68,0,0,0,.36.06l.41.28a5.23,5.23,0,0,0,1.2.64c.14.13.31.29.45.45a2.28,2.28,0,0,0,1,.64l.57.77a2.21,2.21,0,0,0,.93.74l.53.79a2.28,2.28,0,0,0,4-2.13,17,17,0,0,0-4.65-6.47,2.69,2.69,0,0,0-.48-.7c-2-2-6.23-4-9.16-4.66a36.2,36.2,0,0,0-4.53-.89,1.29,1.29,0,0,0,0-.15,2.21,2.21,0,0,0,0-.5,32.22,32.22,0,0,1,4.88,1.13,2.22,2.22,0,0,0,.62.3,26.27,26.27,0,0,1,7.33,3.6,24.94,24.94,0,0,1,2.3,1.81l1.28,1.18c.68.63,2.07,2,3.66.74a2.6,2.6,0,0,0,.44-3.26,19.3,19.3,0,0,0-4.76-4.79,34.51,34.51,0,0,0-25.59-5.24l-.57.17a2.28,2.28,0,0,0-1.6,2.69,2.37,2.37,0,0,0,.49,1c-.65.18-1.28.39-1.9.62a2.21,2.21,0,0,0-.43-1.23c-1.33-1.83-3.33-.6-4.76.27a17.9,17.9,0,0,0-6.54,6.75,18.45,18.45,0,0,0-2.26,9.86c.48,4.1,1.15,5.32,1.8,5.8a13.4,13.4,0,0,0,1.49,2.42,16,16,0,0,0,4,3.82c4.26,2.41,8.22,2.69,11.39,2.91l2.61.09a2.91,2.91,0,0,0,2.46-2.31l.77.09a3.38,3.38,0,0,0,1.86,1.33,27.69,27.69,0,0,1,3.19,1,14.44,14.44,0,0,0,1.39.64,23.79,23.79,0,0,1,4.13,2.08c1.29.92,2,1.56,2.83,2.23a8.7,8.7,0,0,1,1.74,2.07,11.38,11.38,0,0,1,.92,2.22c.73,2.74.31,5.7-1,7.21a2.27,2.27,0,0,0-.24,2.68C301.18,361.16,294.87,361.16,290.55,360.93Zm65.13-45.11h.64a29.05,29.05,0,0,0,4.09,0,15.47,15.47,0,0,0,3.32-.34,2.43,2.43,0,0,0,.37-.17h0a6.48,6.48,0,0,0,2-.41l.81,0a2.28,2.28,0,0,0,1.24-.47,3.72,3.72,0,0,0,2.24-.5l.92-.16a2.28,2.28,0,0,0-.36-4.52l-6-.07a2.57,2.57,0,0,0-.83-.24c-1.49-.17-4.15-.17-6.47-.18h-1.45l-2.23,0a2.17,2.17,0,0,0-.79-.29,2.44,2.44,0,0,0-.07-.38l3,.17a2.19,2.19,0,0,0,.77.15l6.67.13,1.81,0c1.58-.06,4-.17,4-2.49s-2.07-2.51-6.2-2.68c-2.93-.13-6-.17-9.06-.2l-8-.1h0c-.12,0-.62.05-.72.06a2.3,2.3,0,0,0-1.81,1.35c-.57-1.23-2.11-1.31-3.23-1.37l-4-.1a8,8,0,0,0-5.58,2.33,8.09,8.09,0,0,0-2.26,5.63,17.23,17.23,0,0,0,.1,2.06l.19,2.27a10.83,10.83,0,0,0,.53,3.32l.05.67,0,2.72.59,8.86a2.76,2.76,0,0,0,2.52,2.31,3.16,3.16,0,0,0-.93,1.92l-.08,1.25a13.14,13.14,0,0,0,0,1.5c-.25.67-.29,1.56-.34,4.17l0,2.07a26,26,0,0,0,0,3.71c.07.67.11,1.73.15,2.79l-.93,14.32a2.29,2.29,0,0,0,2,2.42h.29a2.29,2.29,0,0,0,2-1.13c.38,0,.76,0,1.11,0l14.9.42,1.37.07a1.85,1.85,0,0,0,.46.06l13.78.33a3.69,3.69,0,0,0,.94-.18h1.77a5.21,5.21,0,0,0,1.21-.27,7.06,7.06,0,0,1,.69-.22,2.53,2.53,0,0,0,1.95-2.54,2.15,2.15,0,0,0-.6-1.46,2.6,2.6,0,0,0,.08-.66,2,2,0,0,0-1.13-2,2.26,2.26,0,0,0-1.47-.67l-6.56-.29c-2.62-.2-5.74-.29-8.79-.38l-6.91-.16c-.8-.4-2.15-.5-4.38-.59a2.58,2.58,0,0,0-1-.28h-.19c0-.39,0-.78-.08-1.33l0-.21.35-5.16c.22-2.37.35-5.59.38-8.67l.33,0a6.13,6.13,0,0,1,.79.06,9.84,9.84,0,0,0,2.3.1,4.14,4.14,0,0,0,.84-.21c.22,0,.41,0,.53,0a17.69,17.69,0,0,0,4.34.13l3.35,0,2.81-.05c.75,0,1.55,0,2.25.06a21.26,21.26,0,0,0,3.54,0,4.21,4.21,0,0,0,2,0A7.63,7.63,0,0,0,367.7,341a2.18,2.18,0,0,0,.72-.62,2.06,2.06,0,0,0,.53-.59l0,0a2.27,2.27,0,0,0-1.23-4.18h-.85l-.24-.11a4.39,4.39,0,0,0-1.89-.25V335s0-.1,0-.14l.93,0h0c.38,0,.81,0,1.08-.08a3,3,0,0,0,2.33-2.54c0-1-.59-2.24-3.05-2.56a22.27,22.27,0,0,0-2.63-.13l-2.12,0c-.31.1-.66.08-.95.19l-.25-.06a12,12,0,0,0-2.42-.11H357a3.75,3.75,0,0,0-1.32.17,2.19,2.19,0,0,0-.71-.05l-2.17.18a4.29,4.29,0,0,0-.94.24,2.46,2.46,0,0,0-1.06,1,7,7,0,0,0-1.14-.1l-.19.83h-.23l.06-.86h0a4.5,4.5,0,0,0-2.28.42,10.92,10.92,0,0,0-2.26-.1h-.62c-1,0-1.52.83-1.82,1.76h-.13c-.05-3.5-.15-7-.33-10.52l-.47-7h.35C346.3,315.76,350.65,315.87,355.68,315.82ZM125,307.73a23.8,23.8,0,0,1,3.73,1.81,2.27,2.27,0,0,0,.57.46,23.65,23.65,0,0,1,5.6,4.62c.55.63,1.3,1.55,1.57,1.88,1.2,1.91,2.17,3.08,3.54,3a2.34,2.34,0,0,0,2-1.37c.34-.78.81-1.84-3.22-7a29.05,29.05,0,0,0-16.46-9.23,35.22,35.22,0,0,0-4.9-.59,4.34,4.34,0,0,0-.76,0,2.28,2.28,0,0,0-2.14,2.26,2.22,2.22,0,0,0,.22,1l-1,0a2.27,2.27,0,0,0,0-1.2c-.48-2-2.42-1.8-4-1.67a38.47,38.47,0,0,0-6.82,1.4,20.6,20.6,0,0,0-7.22,3.43c-2.72,2.51-3.4,3.66-3.42,4.53-.28.49-.56,1-.84,1.6-.7,1.43-1.07,2.33-1.47,3.33a60.37,60.37,0,0,0-2.12,9.58L87.78,327a2.82,2.82,0,0,0,2,2.77l.17,0c0,.22,0,.44-.07.66a3.27,3.27,0,0,0-1.22,2c-.1.61-.2,1.47-.29,2.24a3.66,3.66,0,0,0-.06,1.11c-.67,1.56-.35,7.48-.35,7.52a21.33,21.33,0,0,0,.61,4.55l.18.67c.22.83.5,1.91.88,3A33.3,33.3,0,0,0,91,355.1a19.23,19.23,0,0,0,9.07,10,2.28,2.28,0,0,0,2.81-.66l.59.21a36.72,36.72,0,0,0,11.91,1.69c1.71,0,3.45-.07,5.2-.17l1.1-.1a1.55,1.55,0,0,0,.54,0c4.5-.58,10.82-2.34,15.43-7.42a2.36,2.36,0,0,0,.48-.85c.36-.49.88-1.21,1.43-2.11a2.27,2.27,0,0,0,.29-.74l.29-1.57c0-.09,0-.18,0-.27a2.59,2.59,0,0,0-1.65-2.56,2.22,2.22,0,0,0-1.43.16,2.38,2.38,0,0,0-.46-.34,2.07,2.07,0,0,0-2.21,0,2.25,2.25,0,0,0-1.38,1,11.87,11.87,0,0,1-1.47,1.83,12.07,12.07,0,0,1-2,1.73A20.83,20.83,0,0,1,121,357.8a43.22,43.22,0,0,1-5.18.33,15.17,15.17,0,0,0-3.92-.64,2.3,2.3,0,0,0-.88-.29,17.4,17.4,0,0,1-5.06-1.25,10.85,10.85,0,0,1-3.51-2.57l-1.17-1.28,0,0a14.12,14.12,0,0,1-1.36-3.7,53.73,53.73,0,0,1-.72-12.13l.13-2.53a59.6,59.6,0,0,1,2.17-12.52,21.75,21.75,0,0,1,1.57-4.11c.43-.7.49-.79,1.55-1.23A31.8,31.8,0,0,1,113,314a23.53,23.53,0,0,1,11.38,1.76c.23.11.6.29.79.41l1,.68a22.3,22.3,0,0,1,2.63,1.91,4.4,4.4,0,0,0,1.43,1l.29.13.2.2a5.73,5.73,0,0,0,1.07.88l.31.45a2.27,2.27,0,0,0,.89.79l.34.67a2.24,2.24,0,0,0,.85.92c.11.22.22.43.33.66a2.3,2.3,0,0,0,2.86,1.16,2.27,2.27,0,0,0,1.41-2.73,18.42,18.42,0,0,0-3-6.28,2.88,2.88,0,0,0-.32-.8,19.76,19.76,0,0,0-7-5.95,29.61,29.61,0,0,0-3.53-1.57l0-.13A2.18,2.18,0,0,0,125,307.73Zm387,67.61-.1-3.45c-.07,8-.13,16-.2,24.13v20.54c-.11,6.78.41,13.73-.9,20.8a54,54,0,0,1-22.43,34.77A53.44,53.44,0,0,1,469,480.48c-7,1.57-14.09,1.08-20.83,1.17H385.36c-28.24-.1-36.27-.08-33.16.28,5.77.67-25.75.74-47.68.91l-182.24.94-37.61.12c-6.37,0-12.55.1-19.11,0a54.88,54.88,0,0,1-19.95-4.16A56.8,56.8,0,0,1,11,433.56c-.53-6.79-.29-12.41-.41-18.45,0-9.15,0-21.09,0-31.76.05-43.71.1-85.39.16-130.68,0-2.92-.06-7.82.37-13a61.8,61.8,0,0,1,2.55-11.25,43.38,43.38,0,0,1,5.85-11,55.46,55.46,0,0,1,18.09-18.31c-.86.59-1.78,1.24-2.88,2.07a55.87,55.87,0,0,1,35-10.77l32.37-.05,16.37.07,8.11-8.18h0l.07-.08,0,0,.71-.66c.56-.52,1.13-1,1.67-1.59l19.75-19.75.43-.42L149,160l-2.09-2.49c1-1,2.09-2.11,3.21-3.26,2.61-2.66,5.57-5.69,8.66-8.51.59-.53,2.91-2.91,3.49-3.57,1.47-1.68,2.72-3.15,3.46-4.15a42.89,42.89,0,0,1,4.29-4.6c.71-.68,1.49-1.46,2.28-2.24,3.15-3.14,4.53-4.45,5.39-4.81.25-.18,1.26-1.07,2.29-2,.69-.61,1.39-1.22,1.94-1.68s1.67-1.41,2.79-.41l.18.16c2.29-2.33,4.6-4.68,6.73-6.91.74-.79,1.7-1.74,2.64-2.68l.74-.73c1.84-1.85,3.68-3.64,5.52-5.44,2.77-2.71,5.54-5.42,8.38-8.35.62-.64,2.26-2.16,2.75-2.54a8.18,8.18,0,0,1,1.32-.85l.66-.55,2.73-2.66.08.08,1.26-1.28c1.7-1.75,3.27-3.35,4.83-4.91,1.23-1.22,2.48-2.43,3.75-3.65A39.92,39.92,0,0,1,221.67,65c-.13-1.64,0-3.56,0-4.9A35,35,0,0,1,224.58,47a34.22,34.22,0,0,1,6.86-10.07,50.52,50.52,0,0,1,9-7.49l-.45,0a14.85,14.85,0,0,1,3.24-2.78,30.1,30.1,0,0,1,12.58-4,45.41,45.41,0,0,1,12.9.39l-1.39.66c6.52,1,8.19,2.37,8.31,2.68s-1.37.32-1.73.6a35.31,35.31,0,0,1,12,6.12c5.33,4.11,9.71,10.14,11.38,15.77a49.14,49.14,0,0,1,1.92,6.38,29.68,29.68,0,0,1,.35,5.68,23.14,23.14,0,0,0-.81-3.22c.17,3.92-.4,5.81-1.11,2.36-.18-.78-.37.14-.57,0-.67-.36-.81-2-3.12-8.56-1.28-3.51-4.58-6.4-4.37-5,.14,1.95-2.62-2.3-7.47-6.48a29.11,29.11,0,0,0-9.21-5.34,6.14,6.14,0,0,0-2.07-.35,52,52,0,0,0-12.1-.14,18.36,18.36,0,0,1-2,.17c-2.51.1-2.59,0-5.82,1.72a25.58,25.58,0,0,1,5.53-.27c.6,0,.52.3.75.47a28.84,28.84,0,0,0-6.22,2,21.2,21.2,0,0,0-2,.84,27.39,27.39,0,0,0-13.68,22.16v1.1s.12-.06.12-.1a27,27,0,0,1,8.73-18.87,28.24,28.24,0,0,1,5.24-3.92c3.85-2,5.22-1.93,4.9-1.08a25.82,25.82,0,0,1,5.8-1.59,20.78,20.78,0,0,1,3.91-.2,29.63,29.63,0,0,1,16.07,5.55,23.41,23.41,0,0,1,4.62,4.77,28.21,28.21,0,0,1,4.61,9.38c1.38,5.4.63,7.62,0,6.55a10.61,10.61,0,0,0-1.82-1.65c-.25-2.41-.93-3.86-1.33-3.16a24.27,24.27,0,0,0-8.83-13.76l.35.13a18.51,18.51,0,0,0-1.89-1.62A24.25,24.25,0,0,0,259.54,39l-2.21.37c-2.88.57-3.6,1.07-3.19,1.24.77.41-2.19,1.53-3.88,2.92A23.7,23.7,0,0,0,241,58a21.24,21.24,0,0,0,1.62,13.64c.46.72.82,1.76,1.39,2.57a19.83,19.83,0,0,0,8.58,8.28,14.68,14.68,0,0,1,1.86,1.14,3.73,3.73,0,0,1,.76,1.15,25.14,25.14,0,0,0,2.89.91,8.13,8.13,0,0,1-1,0,31,31,0,0,0,13-.51l.23-.51a20.36,20.36,0,0,0,4.48-2.12l-.88.69c.22.27.87.23.44.75a11.13,11.13,0,0,1-3.39,1.91c-1.41.59-2.06.66-2.41,1.07s-2.23.86-3.52,1.2c-3.18.6-2.16,1.14-2.35,1.7-.07.2.11.38.21.65.22,0,1.18.09,2.93.06a27.28,27.28,0,0,1-4.86.5l.3-.33L259,90.57a37.06,37.06,0,0,1-6.88-.48c-2.57-.39,2.23,2.57,6.65,3.08a29.65,29.65,0,0,0,16.29-2.47,36,36,0,0,0,6-3.54,30.61,30.61,0,0,1-9.84,5.36l.05.15a31.49,31.49,0,0,0,3.57-1.24c2.27-1,3.85-2,5.32-2.58a17.65,17.65,0,0,0,5.48-4.44c2.73-2.91,5.1-7.76,6.56-10.22.59-.92.63,0,.9.15a32.11,32.11,0,0,0,2-11.21A34.15,34.15,0,0,1,296.91,69l.5-2.41a27.7,27.7,0,0,0-.26,5.32l.87.87c.21-.65.42-1.29.63-2-.07.83-.18,1.69-.24,2.39,2.15,2.17,4.37,4.43,6.83,7,3.49,3.62,7.57,7.69,11.38,11.48Q320,95,323.4,98.29t6.79,6.69q4.89,4.87,9.79,9.79l5.88,5.89c1,1,2.15,2.16,3,2.93,5,4.67,11.55,11.33,15.61,15.83,1.09,1.21,2.91,3.07,4.72,4.92l2.75,2.52a20.52,20.52,0,0,1,2.21,1.85c2.94,2.79,5.63,5.54,8,8.15,1.22,1.34,3,3.19,5,5.17l8.57,8.87-1.49-.66a1.87,1.87,0,0,1,.4,1.21l.89.87c2.14,2.1,4.18,4.09,6.16,6.08l.8.8c10.27.37,11.44.8,1.15,1.15,3.8,3.8,7.73,7.73,10.87,11.19.43.47,1.26,1.29,2.14,2.16s1.58,1.57,2.21,2.22c1,1.08,1.93,2,2.83,3l.84.92-.13.14h35.52l-39.48,2.23,16.41.15c-48.9.21-24.63,1.18-64.64,1.52l38.82.34c-12.76.3-27.87.52-20.47,1,5.78.38-18.37.87-26.36,1.33-3.22.18,3.33.41,1.56.61a108.45,108.45,0,0,1-13.55.68c-20.68.11-30.39.87-63,.32l-15.36,0c-53.24.28-103.95.17-156.84-.11L89,208l-13.45,0H68.71c-1.25,0-2.16,0-2.91.08l-2.48.1c-13.12,1.24-25.4,10.18-30.47,22.15a39.58,39.58,0,0,0-3,11c-.12.95-.09,1.91-.16,2.86l-.08,1.48v2l0,7.94.08,31.73c0,21.14.09,42.28.13,63.54q0,36.81,0,73.79a72.53,72.53,0,0,0,.28,7.51l.5,3.26.82,3.19a37.57,37.57,0,0,0,27.77,25.61,39.91,39.91,0,0,0,5.19.7l2.68.15h3.71L84.28,465c47.7-.46,109.36-.28,147.32.31l68.38.38-2.31-.2c7.78-.25,11.9-.65,24.14-.73,24.35-.17,50.2-.15,75.45.2l33.74.26,20.18.08c7.75.1,11.65,0,16.7-1.32a31,31,0,0,1-5.19,1.92A38.77,38.77,0,0,0,488,452a71.7,71.7,0,0,0,5.08-7.29c.9-.81-1.79,5.19-2.39,6.34a39.07,39.07,0,0,0,6.58-15.38,51.16,51.16,0,0,0,.74-8.25q0-5.27,0-10.45c0-13.83,0-27.27-.07-40.58,0-41.55-.06-85.69.47-121.92,0-2,0-4.81,0-8.07a50.54,50.54,0,0,0-.76-8.61A41.68,41.68,0,0,0,468.45,206a41.08,41.08,0,0,1,14.87,6.89c-7.7-6.39-15.44-7.9-18-8.71-2.73-.41-.46-1.25,8.61,1.66,4,1.68-.35-.65.55-.41,1.16.39,4.1.86,10.41,5.28a42.36,42.36,0,0,1,10.59,11.36,43.71,43.71,0,0,1,6.89,24.29c.07,25.42,1.2,55.16,1.75,46.22.79-13,1.53,24.53,1.49,74.17,0,13.77,0,27.59,0,41.4l0,20.62a47.43,47.43,0,0,1-4,18.36,51.64,51.64,0,0,1-7.73,12.57,44.58,44.58,0,0,1-11.72,10,47.05,47.05,0,0,1-22.56,6.74c-18.42.34-39.24.29-54.08.28l-16.14-.14c-19.83-.51-19.51-.51-48.45-.07l43.75,1.43a20.67,20.67,0,0,1,5.43.61H333.87l-18.66-.16-232.38.26-9.43.07a5.64,5.64,0,0,0,.93.11l185.45.16,57-.07c37.66,0,48.43.18,43.57,1l53.81-.38,34.68-.16c6.8-.05,13.5.26,19.89-1.23a50.63,50.63,0,0,0,17.71-7.58,51.38,51.38,0,0,0,21-30c1.55-6,1.69-12,1.55-18.14s-.08-12.19-.13-18.24c-.1-12.09-.19-24.06-.29-36,0-16.08-.09-37.79-.14-56.93,0-14.91-.06-29.91-.09-44.86,0-7.45,0-15-.12-22.31A50.54,50.54,0,0,0,484,202.44a52.25,52.25,0,0,0-17.19-6.68c-8.87-1.37-11.24-1.19-6.83-1.51a54.13,54.13,0,0,1,15.56,1.25,54.84,54.84,0,0,1,22.18,14.69c3.92,4.42,5.31,6.35,3.82,3.77a53.56,53.56,0,0,1,8.8,19.28c1.72,7,1.43,14.1,1.47,20.8q0,20.43.06,40.67C511.93,321.72,512,348.53,512,375.35Zm-226.75-171L158.44,204l-6.32.17c5.64.14,10.5.39,17.07.4l58.1,0,34.56-.08,20.76.1ZM272.19,98.65a9.07,9.07,0,0,0,2.7-.43,34.47,34.47,0,0,0,8.23-4.14,40.54,40.54,0,0,0,4.25-3.44c.81-.72,1.66-1.43,2.41-2.23l.12-.46a36.94,36.94,0,0,1-16.78,10.28ZM235.82,68.32a18,18,0,0,0,4,9.49,26.88,26.88,0,0,1-2.06-3.71V74a28.88,28.88,0,0,0,1.59,2.72,40.09,40.09,0,0,1-1.65-3.7A35.19,35.19,0,0,1,235.82,68.32ZM125.65,197.65h64.43l54.2.11-86.45.24.06.16,28.72.07c18.85,0,32.85,0,44.59.35,10.8.28,28.54.32,52.8.27,29.29-.06,69.64-.36,90.51.27,7.84.24,1.27.6,1.27.9h33l-14.34-14.21,0-.05-.43-.46c-.56-.6-1.12-1.21-1.71-1.8l-2.81-2.81-25.08.18-72.63-.25,8.15-.48-8.16.1-133-2,4.7-.19h42.33c52.44.12,106.8-.13,157.54.38,9.34.1,17.46.21,24.25.35l-15.07-15.07-.42-.43.17.24-2.49,2.09c-1-1-2.11-2.09-3.26-3.21-2.66-2.61-5.69-5.57-8.51-8.66-.53-.59-2.91-2.91-3.57-3.49-1.68-1.47-3.15-2.72-4.15-3.46a42.83,42.83,0,0,1-4.6-4.29c-.68-.71-1.46-1.49-2.24-2.28-3.14-3.15-4.45-4.53-4.81-5.39-.18-.25-1.07-1.26-2-2.29-.61-.69-1.22-1.39-1.68-1.94s-1.4-1.67-.41-2.79l.17-.19c-2.34-2.3-4.67-4.58-6.91-6.71-.77-.74-1.7-1.67-2.62-2.59l-.79-.79c-1.85-1.84-3.64-3.68-5.44-5.52-2.71-2.77-5.42-5.55-8.35-8.38-.64-.62-2.16-2.26-2.54-2.75a8.22,8.22,0,0,1-.85-1.32l-3.22-3.4.08-.08-1.28-1.25c-1.75-1.7-3.35-3.27-4.91-4.83-.82-.83-1.65-1.7-2.47-2.55A24.55,24.55,0,0,1,293,90.33l-1.85,1.93a37.82,37.82,0,0,1-24.28,11.4,44,44,0,0,1-18.39-2.41,40.82,40.82,0,0,1-15-9.44l-1.06,1c-3.62,3.49-7.69,7.57-11.48,11.38q-3.37,3.39-6.69,6.79t-6.69,6.79c-3.25,3.26-6.53,6.52-9.79,9.79l-5.89,5.88c-1,1-2.16,2.15-2.93,3-4.67,5-11.33,11.55-15.83,15.61-1.22,1.09-3.07,2.91-4.92,4.72l-2.52,2.75a20.46,20.46,0,0,1-1.85,2.21c-2.82,3-5.56,5.65-8.15,8-1.34,1.22-3.19,3-5.17,5l-8.87,8.57.66-1.49a2.08,2.08,0,0,1-1.22.4l-.74.76c-2.14,2.19-4.17,4.27-6.2,6.29l-1.26,1.25,33.83.14,3.94-.4,50.79.07-11.25.13c.67.34,6.32.65.07.87-4.94.17-24.1.29-37.75.32-14.66,0-20.92,0-25.15.31-1.72.12-8.49.22-16.25.32C129.3,194.08,127.46,195.9,125.65,197.65ZM90.8,194.06c-.66.19,1,.39,1.77.66l21.42.22,2.49-2.51-3.71.05C82.84,192.93,92.68,193.52,90.8,194.06ZM28.25,460.74a52.3,52.3,0,0,1-11.89-33.89c-.1-15.76-.22-33.93-.34-52,0,13.67,0,25.25,0,36.82l0,.85c0-5.59-.07-11.18-.17-27.46-.08,18.46-.13,29.07-.15,35.48-.07,7.85.14,15.12,2.37,21.89A50,50,0,0,0,28.25,460.74ZM39.37,206.31A48.76,48.76,0,0,1,61.45,198c4.69-.49,10.13-.33,15.49-.34l16.07,0h18.3l2.62-2.64-37.64.33,2.39-.35c-6.39,0-15.88-.12-18.22.5a50,50,0,0,0-25.81,12.17A48.17,48.17,0,0,0,21,228.38c-1.53,4.46-1.25,5.52-.8,3.9a59.06,59.06,0,0,1,4.93-10.72A50.23,50.23,0,0,1,39.37,206.31ZM384,361.54l0-3.62,0-7.27a1.88,1.88,0,0,1,0-.29h0v-.46h.79l-.81-.15a.44.44,0,0,1,0-.08l-.13,0c-.07-.58-.14-1.17-.18-2.23-.1-2.9-.16-6-.13-9l-.08-8.76a2.2,2.2,0,0,1,.19-.93,25.49,25.49,0,0,1,.1-4.9l0-.35c-.32-2.58-.64-5.11-.76-7.66l0-.76a22.8,22.8,0,0,1,.13-4.1c.38-3.42,1.88-5.92,4.21-7,1.81-1,4.42-.95,6.5-.85l12.83,1.13a2.28,2.28,0,0,1,1.31.59,2.2,2.2,0,0,1,1.06.74h.76a2.31,2.31,0,0,1,1.51-.2l1.8.36a2.25,2.25,0,0,1,1.42-.2c.58.11,1.2.25,1.73.39a8,8,0,0,1,3.82.85h0a2.29,2.29,0,0,1,.62.08,8.87,8.87,0,0,1,2.31,1l.9.58a16.91,16.91,0,0,1,6.54,6.8c.26.45.86,1.62,1.16,2.32,2.59,6.3,2.51,12,2.45,17.13,0,1.2,0,2.39,0,3.57V351a22,22,0,0,1-2.13,10.14,17.11,17.11,0,0,1-8.74,7.68c-5.75,2.22-11,2.31-15.63,2.38-1.25,0-2.49,0-3.71.1l-13.4.42h-.07a2.28,2.28,0,0,1-2.28-2.28v-3.73l-1.71-.36a3.79,3.79,0,0,1-1.69-.88,2.79,2.79,0,0,1-.58-2.4Zm7.33-46.27a2.07,2.07,0,0,1,0,.45c0,.63.05,1.26.1,1.9.11,1.39.27,2.76.44,4.13.22,1.85.45,3.71.53,5.62l.25,10.58a2.27,2.27,0,0,1,1.82,2.19l.09,3.4c.09,3,.18,6.42.13,9.78l.15,4.66c.06.9.11,1.81.17,2.4l1.46,0h.81a10.69,10.69,0,0,1,2.32.14c.25,0,1.29,0,2.34.06l1.95.05a2.91,2.91,0,0,1,2.4,1l1.3-.05a2.2,2.2,0,0,1,.14-1.09,3.17,3.17,0,0,1,2.42-1.53h0l1.33-.13c3.61-.32,6.14-.94,7.75-1.91a5.2,5.2,0,0,0,1.43-.94l0,0a2.41,2.41,0,0,1,.1-.56c.07-.22.24-.78.48-1.84a65,65,0,0,0,.15-7.08c0-2.1,0-4.2.06-6s.11-3.71,2.21-3.87a2.21,2.21,0,0,1,1,.15v-1.6a2.18,2.18,0,0,1-1,.24,2.28,2.28,0,0,1-2.27-2.06c0-.06-.06-.67-.06-.73,0-1.55-.08-3.07-.2-4.49-.38-5.23-2.12-8.41-5.48-10-1.23-.56-2.3-1-3-1.31-1.24-.52-3.12-1.3-2.49-3.33s2.31-1.69,4.8-1.18a19,19,0,0,1,2.94,1.09,13.59,13.59,0,0,1,5.86,5.18,2.27,2.27,0,0,1,.31.84,17.72,17.72,0,0,1,1.43,4.42,2.49,2.49,0,0,1,.62-.21,16,16,0,0,0-1.63-4.52c-1.32-2.83-5.18-5.58-7.49-6.52a2.77,2.77,0,0,1-.89-.6,33.52,33.52,0,0,0-6.4-1.56,2.78,2.78,0,0,1-2,1.27,10.21,10.21,0,0,0-1.11.18l-.64.13c-1.61-.06-2.72-.12-3.38-.13a2.52,2.52,0,0,1-.87.13c-1.28-.07-2.6-.17-3.91-.27-1.91-.15-3.8-.29-5.57-.33l-.77,0A17.83,17.83,0,0,0,391.36,315.27Zm-132-238.2c1.37.34,2.16.29,2.48,0a8.05,8.05,0,0,0,1.68-2.33c.06-.13-.38-.33-.74-.4a24.7,24.7,0,0,1-5.42-1.42c-1.24-.72-1.54-.69-1.15.05.12.22-.14.3-.23.44a5.93,5.93,0,0,1-1.29-1,5.16,5.16,0,0,1-.64-1.54,11.9,11.9,0,0,1-3-3.56,1.78,1.78,0,0,0-.4-.52c-1-.91-1.44,2.18.5,4.71A14.88,14.88,0,0,0,259.34,77.07Zm13.42-9.58c-1.4,1.95-3,4-5.16,5.13-.59.24-1.16.54-1.78.74a1.6,1.6,0,0,1-.15.25,11.68,11.68,0,0,0,6.62-2.1,1.74,1.74,0,0,0,.21-.41,3.85,3.85,0,0,1,.07.65A13.91,13.91,0,0,0,275,68.38a5.3,5.3,0,0,0,.3-1.43C275.19,64.68,274,65.62,272.76,67.49ZM258.42,45.88c-.63-.22-1.28-.49-1.83-.63l-1.8-.58a29.61,29.61,0,0,0-5.11,3.17,13.76,13.76,0,0,0-4.19,5.42,19.77,19.77,0,0,0-2.12,10.12,7.79,7.79,0,0,0,.74,1.2c.13.14.3-.05.4-.38.23-1,.71-2.82,1.09-3,.82-.36.93-2.83,1.77-4.33a6.54,6.54,0,0,0,1-2.68,6.49,6.49,0,0,1,.82-2.76,7.19,7.19,0,0,1,1.78-1.93C253.52,48,256,46.43,258.42,45.88Z"/></svg>